<svg width="64" height="64" viewBox="0 0 64 64" fill="none" xmlns="http://www.w3.org/2000/svg">
<path d="M54 10.5H10C9.07174 10.5 8.1815 10.8687 7.52513 11.5251C6.86875 12.1815 6.5 13.0717 6.5 14V50C6.5 50.9283 6.86875 51.8185 7.52513 52.4749C8.1815 53.1312 9.07174 53.5 10 53.5H54C54.9283 53.5 55.8185 53.1312 56.4749 52.4749C57.1312 51.8185 57.5 50.9283 57.5 50V14C57.5 13.0717 57.1312 12.1815 56.4749 11.5251C55.8185 10.8687 54.9283 10.5 54 10.5ZM10 13.5H54C54.1326 13.5 54.2598 13.5527 54.3536 13.6464C54.4473 13.7402 54.5 13.8674 54.5 14V42.375L46.475 34.35C45.8154 33.6996 44.9263 33.335 44 33.335C43.0737 33.335 42.1846 33.6996 41.525 34.35L36.35 39.525C36.3055 39.5735 36.2514 39.6122 36.1912 39.6387C36.1309 39.6652 36.0658 39.6789 36 39.6789C35.9342 39.6789 35.8691 39.6652 35.8088 39.6387C35.7486 39.6122 35.6945 39.5735 35.65 39.525L24.475 28.35C23.8154 27.6996 22.9263 27.335 22 27.335C21.0737 27.335 20.1846 27.6996 19.525 28.35L9.5 38.375V14C9.5 13.8674 9.55268 13.7402 9.64645 13.6464C9.74021 13.5527 9.86739 13.5 10 13.5ZM54 50.5H10C9.86739 50.5 9.74021 50.4473 9.64645 50.3536C9.55268 50.2598 9.5 50.1326 9.5 50V42.625L21.65 30.475C21.6945 30.4265 21.7486 30.3878 21.8088 30.3613C21.8691 30.3348 21.9342 30.3211 22 30.3211C22.0658 30.3211 22.1309 30.3348 22.1912 30.3613C22.2514 30.3878 22.3055 30.4265 22.35 30.475L33.525 41.65C34.1846 42.3004 35.0737 42.665 36 42.665C36.9263 42.665 37.8154 42.3004 38.475 41.65L43.65 36.475C43.6945 36.4265 43.7486 36.3878 43.8088 36.3613C43.8691 36.3348 43.9342 36.3211 44 36.3211C44.0658 36.3211 44.1309 36.3348 44.1912 36.3613C44.2514 36.3878 44.3055 36.4265 44.35 36.475L54.5 46.625V50C54.5 50.1326 54.4473 50.2598 54.3536 50.3536C54.2598 50.4473 54.1326 50.5 54 50.5ZM37.225 26.775C36.9922 26.5422 36.8081 26.2653 36.6836 25.9606C36.5591 25.6558 36.4967 25.3292 36.5 25C36.5 24.337 36.7634 23.7011 37.2322 23.2322C37.7011 22.7634 38.337 22.5 39 22.5C39.663 22.5 40.2989 22.7634 40.7678 23.2322C41.2366 23.7011 41.5 24.337 41.5 25C41.5 25.663 41.2366 26.2989 40.7678 26.7678C40.2989 27.2366 39.663 27.5 39 27.5C38.6708 27.5033 38.3442 27.4409 38.0394 27.3164C37.7347 27.1919 37.4578 27.0078 37.225 26.775Z" fill="black"/>
</svg>
